<?xml version="1.0" standalone="no"?>
<!DOCTYPE svg PUBLIC "-//W3C//DTD SVG 20010904//EN"
 "http://www.w3.org/TR/2001/REC-SVG-20010904/DTD/svg10.dtd">
<svg version="1.0" xmlns="http://www.w3.org/2000/svg"
 width="960.000000pt" height="960.000000pt" viewBox="0 0 960.000000 960.000000"
 preserveAspectRatio="xMidYMid meet">
<metadata>
Created by potrace 1.11, written by Peter Selinger 2001-2013
</metadata>
<g transform="translate(0.000000,960.000000) scale(0.100000,-0.100000)"
fill="#000000" stroke="none">
<path d="M8008 8205 c-2 -2 -21 -5 -43 -6 -93 -8 -252 -84 -335 -162 -95 -89
-101 -101 -249 -522 -78 -220 -145 -409 -150 -420 -5 -11 -35 -94 -66 -185
-31 -91 -61 -174 -65 -185 -5 -11 -25 -67 -45 -125 -20 -58 -39 -112 -42 -120
-3 -8 -7 -19 -8 -25 -2 -5 -18 -53 -38 -105 -19 -52 -52 -142 -72 -200 -20
-58 -47 -134 -60 -170 -23 -64 -153 -431 -222 -625 -19 -55 -42 -118 -50 -140
-8 -22 -40 -110 -70 -195 -98 -277 -171 -483 -213 -600 -23 -63 -47 -133 -55
-155 -7 -22 -34 -98 -59 -170 -26 -71 -67 -188 -93 -260 -25 -71 -55 -157 -68
-190 -12 -33 -35 -95 -50 -139 l-28 -78 -49 4 c-26 3 -50 7 -53 9 -2 3 5 43
15 89 10 47 22 101 25 120 3 19 8 42 10 50 2 8 6 26 9 40 2 14 9 45 14 70 6
25 13 63 16 85 4 22 8 47 11 55 5 17 3 7 49 235 19 94 67 324 105 512 39 188
72 352 75 365 2 13 23 113 46 223 45 213 45 213 60 290 5 28 12 61 15 75 9 44
77 374 81 395 2 11 6 29 8 40 13 61 48 233 52 250 2 11 17 88 34 170 17 83 33
161 36 175 4 22 16 76 19 90 1 3 5 23 9 45 4 22 11 58 16 80 17 73 166 800
176 855 3 14 18 88 34 165 17 77 30 143 30 145 0 3 -218 5 -485 5 -479 0 -486
0 -490 -20 -4 -18 -15 -84 -30 -175 -9 -58 -65 -376 -92 -525 -14 -77 -27
-156 -29 -175 -3 -19 -9 -55 -14 -80 -5 -25 -14 -74 -19 -110 -14 -84 -20
-119 -26 -150 -3 -14 -7 -36 -10 -50 -2 -14 -7 -43 -10 -65 -4 -22 -8 -49 -10
-61 -2 -11 -8 -45 -14 -75 -5 -30 -13 -70 -15 -89 -3 -19 -19 -114 -36 -210
-18 -96 -33 -184 -34 -195 -7 -41 -73 -426 -80 -460 -2 -11 -16 -90 -30 -175
-36 -205 -36 -206 -47 -270 -6 -30 -12 -71 -15 -90 -3 -19 -9 -55 -14 -80 -6
-25 -12 -61 -15 -80 -3 -19 -7 -46 -10 -60 -3 -14 -7 -41 -10 -60 -3 -19 -10
-57 -15 -85 -5 -27 -12 -68 -15 -90 -3 -22 -7 -47 -10 -55 -2 -8 -6 -31 -9
-50 -2 -19 -19 -114 -36 -210 -17 -96 -34 -191 -36 -210 -3 -19 -7 -46 -10
-60 -7 -35 -22 -123 -44 -250 -5 -30 -12 -68 -15 -85 -3 -16 -8 -47 -11 -68
-3 -21 -7 -46 -9 -55 -2 -9 -4 -21 -4 -25 -1 -5 -16 -6 -33 -3 -18 3 -82 12
-142 21 -60 9 -113 18 -117 21 -8 5 -7 25 7 134 3 25 7 65 10 90 2 25 9 79 14
120 9 69 15 118 25 210 9 83 36 308 40 340 2 19 7 59 10 89 4 30 8 61 10 70 2
9 6 48 10 86 11 110 20 186 30 265 6 47 13 104 20 170 4 30 8 66 10 80 4 28
12 101 20 172 3 26 7 62 10 80 6 44 15 124 20 172 2 22 6 60 10 85 3 25 8 64
10 86 2 22 6 56 9 75 2 19 7 62 11 95 4 33 8 71 10 85 2 14 7 52 10 85 4 33 8
71 10 85 3 14 7 49 10 77 3 29 7 67 9 85 2 18 7 60 11 93 4 33 8 70 10 83 2
13 7 53 10 90 4 37 8 74 10 82 3 8 7 40 10 70 6 59 12 117 21 190 3 25 7 63 9
85 3 22 7 58 10 80 5 39 8 62 20 175 4 30 11 84 15 120 5 35 7 67 4 69 -8 8
-894 7 -906 0 -5 -4 -11 -33 -13 -65 -2 -56 -11 -180 -20 -289 -2 -27 -7 -88
-10 -135 -3 -47 -8 -110 -10 -140 -3 -30 -7 -91 -10 -135 -3 -44 -8 -107 -10
-140 -3 -33 -7 -96 -10 -140 -3 -44 -8 -111 -11 -150 -3 -38 -7 -97 -9 -130
-2 -33 -6 -89 -9 -125 -3 -36 -8 -101 -11 -145 -17 -238 -24 -341 -30 -415 -3
-30 -7 -93 -10 -140 -3 -47 -7 -110 -10 -140 -2 -30 -7 -93 -10 -140 -3 -47
-8 -110 -10 -140 -3 -30 -7 -93 -10 -140 -4 -47 -8 -107 -10 -135 -9 -115 -29
-395 -40 -550 -3 -44 -7 -107 -10 -140 -2 -33 -7 -100 -10 -150 -7 -103 -15
-178 -18 -181 -1 -1 -22 1 -47 6 -62 11 -130 21 -160 24 l-25 2 1 235 c1 129
5 358 8 509 4 151 9 372 11 490 3 118 7 312 10 430 3 118 7 328 10 465 3 138
7 333 10 435 2 102 7 314 10 473 l6 287 -458 0 -459 0 2 -102 c4 -145 14 -554
19 -738 2 -85 7 -256 10 -380 3 -124 8 -306 10 -405 3 -99 8 -268 10 -375 19
-770 27 -1063 30 -1131 1 -35 1 -67 -1 -70 -2 -3 -56 2 -121 13 -65 10 -138
21 -163 24 -25 4 -46 7 -47 8 -1 1 -4 73 -8 161 -3 88 -7 203 -10 255 -2 52
-7 165 -10 250 -3 85 -8 207 -11 270 -2 63 -6 169 -9 235 -4 117 -11 305 -20
515 -3 58 -8 177 -11 265 -6 155 -11 279 -13 320 -1 20 -7 20 -433 19 -264 0
-432 -4 -431 -10 1 -5 4 -52 8 -104 4 -52 9 -111 11 -130 2 -19 6 -73 9 -120
3 -47 7 -101 10 -120 2 -19 7 -75 11 -125 11 -157 11 -168 18 -250 4 -44 9
-107 12 -140 2 -33 7 -87 10 -120 3 -33 7 -82 9 -110 6 -98 21 -283 40 -515 4
-41 8 -97 10 -125 6 -90 16 -209 21 -259 l5 -48 -33 6 c-18 3 -51 8 -73 11
-22 4 -51 8 -65 10 -242 36 -250 38 -251 54 -1 9 -3 25 -4 36 -2 11 -6 47 -9
80 -7 62 -13 108 -21 173 -2 20 -7 64 -10 97 -3 33 -8 74 -10 90 -3 17 -7 53
-10 80 -3 28 -7 70 -10 95 -2 25 -7 72 -11 105 -3 33 -7 74 -9 90 -2 17 -6 55
-10 85 -3 30 -7 71 -10 90 -2 19 -7 60 -10 90 -3 30 -8 71 -10 90 -9 76 -16
137 -20 180 -2 25 -7 65 -10 90 -3 25 -12 108 -20 185 -9 77 -17 156 -20 175
-2 19 -7 64 -11 100 -4 36 -8 72 -9 80 -1 8 -5 51 -10 95 -4 44 -9 91 -11 105
-2 14 -6 50 -9 80 l-6 56 678 0 678 -1 0 319 c0 188 -3 320 -9 324 -5 3 -152
4 -325 3 -174 -1 -582 -4 -907 -6 -378 -2 -605 -7 -630 -14 -75 -20 -109 -73
-99 -151 3 -25 8 -65 10 -90 3 -25 7 -61 10 -80 2 -19 9 -82 15 -140 14 -132
19 -186 25 -230 3 -19 7 -60 10 -90 7 -76 16 -150 20 -180 2 -14 7 -59 10
-100 4 -41 8 -77 10 -80 2 -3 6 -48 10 -100 4 -52 8 -97 10 -100 1 -3 6 -41
10 -84 4 -43 8 -87 10 -97 2 -10 6 -44 10 -76 3 -32 7 -76 10 -98 2 -22 7 -67
11 -100 3 -33 7 -71 9 -85 1 -14 5 -54 9 -90 3 -36 8 -76 10 -90 3 -14 7 -56
11 -93 3 -37 8 -76 10 -85 1 -9 6 -51 9 -92 4 -41 9 -88 11 -105 3 -16 7 -55
10 -85 3 -30 7 -66 9 -80 2 -14 7 -59 11 -100 4 -41 8 -86 10 -100 4 -32 13
-110 20 -175 3 -27 7 -63 9 -80 2 -16 7 -64 11 -105 15 -160 32 -281 41 -289
8 -7 98 -23 444 -77 82 -13 287 -46 310 -50 14 -2 43 -7 65 -10 22 -2 49 -7
61 -9 12 -3 39 -7 60 -10 21 -4 80 -13 129 -21 113 -19 129 -21 185 -29 25 -3
52 -8 60 -10 13 -3 37 -7 125 -20 52 -8 223 -35 248 -40 81 -15 147 -25 187
-31 57 -8 70 -10 155 -24 39 -6 82 -13 97 -15 15 -2 53 -9 85 -14 66 -12 90
-16 188 -31 39 -6 84 -13 100 -16 17 -4 41 -7 55 -9 14 -1 81 -12 150 -23 69
-12 143 -23 164 -27 21 -3 48 -7 60 -10 21 -4 74 -13 132 -21 17 -2 98 -15
180 -28 82 -14 167 -27 189 -31 22 -3 51 -8 65 -10 29 -5 151 -25 195 -32 59
-9 200 -32 225 -37 14 -2 43 -7 65 -10 22 -3 49 -7 60 -10 11 -2 43 -7 70 -10
28 -4 88 -13 135 -21 113 -20 118 -21 240 -40 58 -9 116 -18 130 -21 46 -7
205 -33 245 -39 22 -3 47 -7 55 -10 8 -2 37 -6 64 -10 27 -3 85 -12 130 -20
44 -7 97 -16 116 -19 19 -2 55 -8 80 -11 l46 -7 31 84 c17 46 87 238 156 428
189 520 355 974 394 1080 20 52 51 138 70 190 60 169 79 221 158 435 42 116
94 257 115 315 21 58 52 143 69 190 18 47 45 121 60 165 72 200 353 972 361
990 5 11 18 47 30 80 12 33 65 177 117 320 52 143 108 295 123 338 55 154 118
181 277 121 80 -31 563 -200 712 -250 167 -57 286 -47 388 30 126 95 182 297
120 427 -37 77 -92 133 -142 142 -11 2 -33 9 -48 15 -16 7 -31 12 -35 12 -3 0
-71 21 -151 46 -81 25 -204 63 -276 86 -71 22 -155 48 -185 58 -146 48 -322
101 -385 116 -60 14 -238 28 -247 19z"/>
<path d="M2064 3205 c-165 -36 -313 -151 -393 -305 -50 -96 -70 -176 -69 -283
2 -161 59 -297 173 -413 111 -112 237 -170 384 -178 390 -20 692 317 627 699
-38 226 -220 422 -446 479 -72 18 -199 18 -276 1z"/>
<path d="M4712 2749 c-106 -27 -194 -73 -270 -145 -290 -269 -243 -742 94
-946 89 -54 174 -80 284 -86 161 -8 308 45 429 154 173 157 237 396 167 626
-23 77 -82 173 -147 237 -147 147 -361 209 -557 160z"/>
</g>
</svg>
